<svg width="30" height="30" viewBox="0 0 30 30" fill="none" xmlns="http://www.w3.org/2000/svg">
<path d="M25.8896 16.9512C26.0097 16.292 26.0742 15.6182 26.0742 14.9443C26.0742 13.4502 25.7812 12 25.2041 10.6377C24.6474 9.31934 23.8476 8.13574 22.831 7.11914C21.8229 6.10846 20.6279 5.30348 19.3125 4.74902C17.9472 4.17188 16.5 3.87891 15.0058 3.87891C14.3027 3.87891 13.5966 3.94629 12.9111 4.07812C11.9625 3.57546 10.9055 3.31197 9.83199 3.31055C8.08297 3.31055 6.43648 3.99316 5.20015 5.22949C4.59008 5.83643 4.10638 6.55828 3.777 7.35331C3.44762 8.14834 3.27911 9.00077 3.28121 9.86133C3.28121 10.9746 3.56832 12.0703 4.10445 13.0371C3.99605 13.6641 3.93746 14.3057 3.93746 14.9443C3.93746 16.4385 4.23043 17.8887 4.80758 19.251C5.36422 20.5693 6.16109 21.7529 7.17769 22.7695C8.19429 23.7861 9.37789 24.583 10.6962 25.1396C12.0615 25.7168 13.5087 26.0098 15.0029 26.0098C15.6533 26.0098 16.3037 25.9512 16.9423 25.8369C17.9238 26.3906 19.0312 26.6865 20.165 26.6865C21.914 26.6865 23.5605 26.0068 24.7968 24.7676C26.0361 23.5312 26.7158 21.8848 26.7158 20.1357C26.7187 19.0225 26.4316 17.9238 25.8896 16.9512ZM15.0498 21.7236C11.1181 21.7236 9.36031 19.79 9.36031 18.3428C9.36031 17.5986 9.90816 17.0801 10.664 17.0801C12.3457 17.0801 11.9121 19.4971 15.0498 19.4971C16.6582 19.4971 17.5459 18.624 17.5459 17.7305C17.5459 17.1943 17.2822 16.5967 16.2216 16.3359L12.7236 15.4629C9.90816 14.7568 9.39547 13.2334 9.39547 11.8037C9.39547 8.83301 12.1933 7.7168 14.8212 7.7168C17.2412 7.7168 20.0947 9.05566 20.0947 10.8369C20.0947 11.6016 19.4326 12.0439 18.6767 12.0439C17.2412 12.0439 17.5048 10.0576 14.6132 10.0576C13.1777 10.0576 12.3837 10.708 12.3837 11.6367C12.3837 12.5654 13.5175 12.8613 14.5019 13.0869L17.0918 13.6611C19.9277 14.2939 20.6455 15.9492 20.6455 17.5078C20.6455 19.9189 18.791 21.7236 15.0498 21.7236Z" fill="#26C17E"/>
</svg>
