<svg width="7" height="15" viewBox="0 0 7 15" fill="none" xmlns="http://www.w3.org/2000/svg">
<path d="M5.83749 14.5005C5.68809 14.501 5.54048 14.4681 5.4055 14.404C5.27052 14.34 5.15161 14.2465 5.05749 14.1305L0.227488 8.13052C0.0804062 7.95159 0 7.72714 0 7.49552C0 7.26389 0.0804062 7.03945 0.227488 6.86052L5.22749 0.86052C5.39723 0.656303 5.64114 0.527879 5.90556 0.503499C6.16999 0.479119 6.43327 0.560781 6.63749 0.73052C6.8417 0.900258 6.97013 1.14417 6.99451 1.4086C7.01889 1.67302 6.93723 1.9363 6.76749 2.14052L2.29749 7.50052L6.61749 12.8605C6.73977 13.0073 6.81745 13.186 6.84133 13.3756C6.86521 13.5651 6.83429 13.7576 6.75223 13.9301C6.67018 14.1026 6.54042 14.248 6.37831 14.3491C6.2162 14.4502 6.02852 14.5028 5.83749 14.5005Z" fill="white"/>
</svg>
