<svg width="13" height="8" viewBox="0 0 13 8" fill="none" xmlns="http://www.w3.org/2000/svg">
<path d="M0.342019 7.65952C0.44973 7.76745 0.57767 7.85308 0.718516 7.9115C0.859362 7.96993 1.01035 8 1.16283 8C1.31531 8 1.4663 7.96993 1.60714 7.9115C1.74799 7.85308 1.87593 7.76745 1.98364 7.65952L6.50101 3.14214L11.0184 7.65952C11.2361 7.87721 11.5313 7.99951 11.8392 7.99951C12.1471 7.99951 12.4423 7.87721 12.66 7.65952C12.8777 7.44182 13 7.14657 13 6.8387C13 6.53084 12.8777 6.23559 12.66 6.01789L7.316 0.673887C7.20829 0.565955 7.08035 0.480326 6.93951 0.421901C6.79866 0.363476 6.64768 0.333404 6.49519 0.333404C6.34271 0.333404 6.19172 0.363476 6.05088 0.421901C5.91003 0.480326 5.78209 0.565955 5.67438 0.673887L0.330376 6.01789C-0.112047 6.46032 -0.112047 7.20545 0.342019 7.65952Z" fill="white"/>
</svg>
